<svg width="40" height="40" viewBox="0 0 40 40" fill="none" xmlns="http://www.w3.org/2000/svg">
<path d="M21.8267 19.9034C21.8411 19.7697 21.9213 18.7965 21.8267 19.0426C22.5481 16.8563 25.0048 15.0758 28.5262 15.007C29.4601 14.9888 29.3327 15.332 28.5262 15.4807C25.6841 16.4281 24.6671 17.7405 24.6671 21.3381C24.6671 24.671 27.1052 26.3754 26.1578 26.5297C23.9357 26.4703 22.3683 25.428 21.8947 22.5859L22.9628 22.4859V21.2107C22.9485 21.0178 22.9485 20.4527 22.9628 20.2598L21.8267 19.9034Z" fill="white"/>
<path d="M15.263 19.2697C14.9222 19.2231 14.0053 18.8892 13.3682 18.796C13.91 10.8487 25.4016 10.3563 28.5261 11.2171C29.2618 11.4198 28.2887 11.6073 27.5787 11.6908C22.7467 12.2589 18.1051 13.8816 18.1051 20.6908C18.1051 25.9358 19.961 27.7923 21.8945 28.2697C23.0159 28.8828 22.0866 29.0543 20.9472 29.2171C17.6314 29.6908 13.4723 28.6163 12.8945 22.1118L15.263 22.5855C15.263 21.6327 15.211 20.2214 15.263 19.2697Z" fill="white"/>
<path d="M2.94732 14.0596C4.95191 7.20305 15.6456 6.007 21.8947 6.007C26.3937 5.94863 28.6253 6.24572 32.6204 7.25392C33.7574 7.54087 33.7565 7.77087 32.6204 7.77087C27.4371 7.55371 19.2509 7.83354 14.4415 11.295C8.14764 15.7162 7.52349 26.6208 13.0214 30.5202C15.8597 32.5333 14.7894 32.5333 13.3684 32.5333C7.63463 32.5333 2.94732 30.9977 2.94732 20.6911C3.64008 20.8651 4.17877 21.0199 4.84205 21.1648C4.86901 19.6537 4.84205 18.3757 4.84205 16.9017C4.30964 16.8344 2.47363 16.428 2.47363 16.428C2.47363 16.428 2.87481 14.3211 2.94732 14.0596Z" fill="white"/>
<path d="M29.4739 15.0044C26.2029 15.0125 21.3833 16.234 21.3833 20.5822L22.4272 20.785C22.4132 20.9734 22.4132 21.1627 22.4272 21.3511C22.4272 21.6995 22.4272 22.0334 22.4272 22.3382L21.3833 22.2643C21.6602 26.1891 23.9604 27.2736 26.1267 27.3317C27.163 27.3317 28.1391 27.2207 29.0947 26.7801C29.1273 26.7647 29.1538 26.7382 29.1695 26.7049C29.1853 26.6717 29.1894 26.6338 29.1811 26.5978C29.1727 26.5618 29.1526 26.5299 29.124 26.5076C29.0954 26.4852 29.0602 26.4738 29.0244 26.4753C27.0269 26.7656 24.983 25.1439 24.983 21.7036C24.983 17.3488 27.3505 15.9518 32.316 15.9518C34.5455 15.9518 33.2633 15.0044 29.4739 15.0044ZM22.4909 23.1053C23.0447 23.1053 23.5103 23.1053 24.1523 23.1053C24.2882 24.2734 24.7563 25.6317 25.5921 26.4317C24.8129 26.3328 24.0898 25.9624 23.5424 25.3816C22.995 24.8009 22.5651 23.9118 22.4909 23.1053ZM24.1523 20.2149C23.848 20.1617 22.3686 19.7412 22.3686 19.7412C22.3686 19.7412 23.316 16.4254 27.2942 16.1689C26.5969 16.4515 25.9698 16.8915 25.4586 17.4566C24.7204 18.2728 24.2633 19.2675 24.1523 20.2149Z" fill="#2E3340"/>
<path d="M35.6278 11.9059C31.2468 10.6341 12.799 9.09224 12.799 19.7453C13.4201 19.8363 13.8514 19.9759 14.1835 20.0214C14.1393 20.8325 14.1856 21.744 14.1856 22.5673L12.4229 22.3384C12.421 28.2674 16.8609 30.375 20.2838 30.375C20.8489 30.3723 21.4133 30.3318 21.9736 30.2537C23.3835 30.092 24.7511 29.6493 26.0031 28.9493C26.0304 28.9292 26.051 28.9005 26.0619 28.8674C26.0729 28.8343 26.0736 28.7984 26.064 28.7648C26.0544 28.7312 26.035 28.7017 26.0085 28.6804C25.982 28.659 25.9498 28.647 25.9164 28.646C23.0279 29.2527 19.0706 28.4337 19.0706 21.2749C19.0706 11.7502 31.9305 12.376 35.6711 12.2244C35.703 12.2098 35.7295 12.1846 35.7465 12.1527C35.7634 12.1208 35.77 12.0839 35.765 12.0478C35.7601 12.0116 35.744 11.9781 35.7192 11.9525C35.6944 11.9268 35.6623 11.9105 35.6278 11.9059ZM20.2982 29.5712C18.6369 29.6819 16.9996 29.1114 15.7308 27.9799C14.462 26.8483 13.6607 25.2439 13.4957 23.5044C14.5934 23.6561 15.9943 23.7774 17.1642 23.8381C17.2223 25.036 17.5799 26.1966 18.2011 27.2031C18.8223 28.2095 19.6851 29.0263 20.7026 29.5712H20.2982ZM17.6119 18.0596C17.5252 18.3932 17.3953 18.9847 17.2797 19.5004L15.5466 19.3184L13.799 19.0909C13.799 13.5213 22.4906 11.6111 25.8134 11.6111C21.3073 12.7183 18.3485 14.9959 17.6119 18.0141V18.0596Z" fill="#2E3340"/>
<path d="M37.8822 8.75532C32.5442 6.86315 26.6064 5.92904 20.9474 6.00416C11.9474 6.00416 2.2769 8.68196 2 17.3726L4.21521 17.7828C3.93831 18.9042 3.93831 21.147 3.93831 21.147C3.93831 21.147 2.67534 20.7598 2 20.5863C2 30.8656 7.8079 33.4778 13.3974 33.4778C15.6548 33.4848 17.8946 33.0782 20.0072 32.2778C20.0405 32.2625 20.0675 32.236 20.0836 32.2029C20.0997 32.1698 20.1038 32.1321 20.0954 32.0962C20.0869 32.0604 20.0663 32.0286 20.0371 32.0063C20.0079 31.9841 19.9719 31.9727 19.9353 31.9742C18.1967 31.9742 16.8173 32.5525 14.0584 30.5284C8.69878 26.6393 9.35975 16.519 15.4953 12.1095C21.8177 7.45414 35.4826 8.8999 37.8247 9.04447C37.8436 9.04827 37.863 9.04829 37.8819 9.04453C37.9008 9.04077 37.9187 9.03331 37.9348 9.02257C37.9508 9.01183 37.9645 8.99802 37.9752 8.98194C37.9859 8.96585 37.9934 8.9478 37.9972 8.92881C38.0009 8.90982 38.0009 8.89028 37.9972 8.87128C37.9935 8.85229 37.9861 8.83422 37.9754 8.81811C37.9647 8.802 37.951 8.78816 37.935 8.77739C37.919 8.76662 37.9011 8.75912 37.8822 8.75532ZM13.4549 32.6103C6.81644 32.6103 3.42372 28.8786 3.10761 21.7077C4.91028 22.1781 6.61041 22.6478 8.4545 22.9093C8.34339 25.7196 9.30473 28.4662 11.1415 30.5862C12.0808 31.5309 13.2349 32.2306 14.5039 32.6248L13.4549 32.6103ZM28.4992 7.64209C20.4091 7.64209 11.0366 8.65767 9.19943 17.7828C9.19943 17.7828 4.21521 16.9418 3.10761 16.6615C4.49211 5.16738 23.5983 6.03461 31.3515 7.64209H28.4992Z" fill="#2E3340"/>
</svg>
