<svg width="40" height="40" viewBox="0 0 40 40" fill="none" xmlns="http://www.w3.org/2000/svg">
<path d="M29.4734 15.0044C26.2024 15.0125 21.3828 16.234 21.3828 20.5822L22.4267 20.785C22.4127 20.9734 22.4127 21.1627 22.4267 21.3511C22.4267 21.6995 22.4267 22.0334 22.4267 22.3382L21.3828 22.2643C21.6597 26.1891 23.9599 27.2736 26.1262 27.3317C27.1625 27.3317 28.1386 27.2207 29.0942 26.7801C29.1269 26.7647 29.1533 26.7382 29.1691 26.7049C29.1848 26.6717 29.1889 26.6338 29.1806 26.5978C29.1723 26.5618 29.1521 26.5299 29.1235 26.5076C29.0949 26.4852 29.0597 26.4738 29.0239 26.4753C27.0264 26.7656 24.9825 25.1439 24.9825 21.7036C24.9825 17.3488 27.35 15.9518 32.3155 15.9518C34.545 15.9518 33.2628 15.0044 29.4734 15.0044ZM22.4904 23.1053C23.0442 23.1053 23.5098 23.1053 24.1518 23.1053C24.2877 24.2734 24.7558 25.6317 25.5917 26.4317C24.8124 26.3328 24.0893 25.9624 23.5419 25.3816C22.9945 24.8009 22.5647 23.9118 22.4904 23.1053ZM24.1518 20.2149C23.8475 20.1617 22.3681 19.7412 22.3681 19.7412C22.3681 19.7412 23.3155 16.4254 27.2937 16.1689C26.5964 16.4515 25.9693 16.8915 25.4581 17.4566C24.7199 18.2728 24.2628 19.2675 24.1518 20.2149Z" fill="white"/>
<path d="M35.6278 11.9054C31.2468 10.6336 12.799 9.09175 12.799 19.7448C13.4201 19.8358 13.8514 19.9754 14.1835 20.0209C14.1393 20.832 14.1856 21.7435 14.1856 22.5668L12.4229 22.3379C12.421 28.2669 16.8609 30.3745 20.2838 30.3745C20.8489 30.3719 21.4133 30.3313 21.9736 30.2532C23.3835 30.0915 24.7511 29.6488 26.0031 28.9488C26.0304 28.9287 26.051 28.9 26.0619 28.8669C26.0729 28.8338 26.0736 28.7979 26.064 28.7643C26.0544 28.7308 26.035 28.7012 26.0085 28.6799C25.982 28.6585 25.9498 28.6465 25.9164 28.6455C23.0279 29.2522 19.0706 28.4332 19.0706 21.2744C19.0706 11.7497 31.9305 12.3755 35.6711 12.2239C35.703 12.2093 35.7295 12.1841 35.7465 12.1522C35.7634 12.1203 35.77 12.0835 35.765 12.0473C35.7601 12.0111 35.744 11.9776 35.7192 11.952C35.6944 11.9263 35.6623 11.91 35.6278 11.9054ZM20.2982 29.5707C18.6369 29.6814 16.9996 29.111 15.7308 27.9794C14.462 26.8478 13.6607 25.2434 13.4957 23.504C14.5934 23.6556 15.9943 23.777 17.1642 23.8376C17.2223 25.0355 17.5799 26.1961 18.2011 27.2026C18.8223 28.209 19.6851 29.0258 20.7026 29.5707H20.2982ZM17.6119 18.0591C17.5252 18.3927 17.3953 18.9842 17.2797 19.4999L15.5466 19.3179L13.799 19.0904C13.799 13.5208 22.4906 11.6106 25.8134 11.6106C21.3073 12.7178 18.3485 14.9954 17.6119 18.0136V18.0591Z" fill="white"/>
<path d="M37.8822 8.75532C32.5442 6.86315 26.6064 5.92904 20.9474 6.00416C11.9474 6.00416 2.2769 8.68196 2 17.3726L4.21521 17.7828C3.93831 18.9042 3.93831 21.147 3.93831 21.147C3.93831 21.147 2.67534 20.7598 2 20.5863C2 30.8656 7.8079 33.4778 13.3974 33.4778C15.6548 33.4848 17.8946 33.0782 20.0072 32.2778C20.0405 32.2625 20.0675 32.236 20.0836 32.2029C20.0997 32.1698 20.1038 32.1321 20.0954 32.0962C20.0869 32.0604 20.0663 32.0286 20.0371 32.0063C20.0079 31.9841 19.9719 31.9727 19.9353 31.9742C18.1967 31.9742 16.8173 32.5525 14.0584 30.5284C8.69878 26.6393 9.35975 16.519 15.4953 12.1095C21.8177 7.45414 35.4826 8.8999 37.8247 9.04447C37.8436 9.04827 37.863 9.04829 37.8819 9.04453C37.9008 9.04077 37.9187 9.03331 37.9348 9.02257C37.9508 9.01183 37.9645 8.99802 37.9752 8.98194C37.9859 8.96585 37.9934 8.9478 37.9972 8.92881C38.0009 8.90982 38.0009 8.89028 37.9972 8.87128C37.9935 8.85229 37.9861 8.83422 37.9754 8.81811C37.9647 8.802 37.951 8.78816 37.935 8.77739C37.919 8.76662 37.9011 8.75912 37.8822 8.75532ZM13.4549 32.6103C6.81644 32.6103 3.42372 28.8786 3.10761 21.7077C4.91028 22.1781 6.61041 22.6478 8.4545 22.9093C8.34339 25.7196 9.30473 28.4662 11.1415 30.5862C12.0808 31.5309 13.2349 32.2306 14.5039 32.6248L13.4549 32.6103ZM28.4992 7.64209C20.4091 7.64209 11.0366 8.65767 9.19943 17.7828C9.19943 17.7828 4.21521 16.9418 3.10761 16.6615C4.49211 5.16738 23.5983 6.03461 31.3515 7.64209H28.4992Z" fill="white"/>
</svg>
