<?xml version="1.0" standalone="no"?>
<!DOCTYPE svg PUBLIC "-//W3C//DTD SVG 1.0//EN" "http://www.w3.org/TR/2001/REC-SVG-20010904/DTD/svg10.dtd">
<svg xmlns="http://www.w3.org/2000/svg" xmlns:xlink="http://www.w3.org/1999/xlink" id="body_1" width="40" height="40">

<defs>
        <clipPath  id="1">

            <path clip-rule="evenodd" d="M0 0L60 0L60 60L0 60z" />        </clipPath>
            <clipPath  id="2">

                <path clip-rule="evenodd" d="M0 0L60 0L60 60L0 60z" />            </clipPath>
</defs>

<g transform="matrix(1.3333334 0 0 1.3333334 0 0)">
    <path d="M0 0L30 0L30 30L0 30z" stroke="none" fill="#FFFFFF" fill-rule="evenodd" fill-opacity="0" />
	<g transform="matrix(0.5 0 0 -0.5 -0 30)" clip-path="url(#1)" >
		<g clip-path="url(#2)" >
			<g>
                <path d="M42.5 0L17.5 0C 6.875 0 0 6.875 0 17.5L0 17.5L0 42.691C 0 53.125 6.875 60 17.309 60L17.309 60L42.5 60C 53.125 60 60 53.125 60 42.5L60 42.5L60 17.5C 60 6.875 53.125 0 42.5 0zz" stroke="none" fill="#263138" fill-rule="nonzero" />
                <path d="M38.547 19.120998C 37.426 19.120998 36.426 19.469002 35.598 20.152C 34.605 20.957 33.82 22.152 33.793 23.562C 33.781 24.272999 34.527 24.272999 34.527 24.272999C 34.527 24.272999 35.742 24.289001 36.332 24.289001C 36.918 24.272999 37.09 23.425999 37.121 23.210999C 37.348 21.300999 38.391 20.469002 39.188 20.09C 39.672 19.862999 39.551 19.152 38.547 19.117zz" stroke="none" fill="#FFFFFF" fill-rule="nonzero" />
                <path d="M28.465 28.824C 27.477 28.945 26.012 29.047 25.062 29.289C 23.527 29.68 23.566 31.113 23.633 31.578C 23.82 32.98 24.316 34.273003 25.078 35.476997C 26.023 36.953 27.387 38.25 29.137 39.301003C 32.422 41.273003 37.453 42.5 42.5 42.5C 43.434 42.5 50.242 42.5 50.242 41.094C 50.242 40.312 48.672 40.387 47.988 40.387C 42.848 40.387 39.188 39.664 36.465 38.098C 33.781 36.562 31.91 34.211 30.641 30.734C 30.508 30.43 30.066 28.641 28.465 28.82zz" stroke="none" fill="#FFFFFF" fill-rule="nonzero" />
                <path d="M32.949 14.469002C 30.398 14.414001 27.996 15.609001 26.176 17.695C 24.633 19.460999 23.707 21.237999 23.535 23.522999C 23.43 25.015999 24.066 25.530998 24.93 25.441002C 25.527 25.379002 27.387 25.289001 28.449 25.058998C 29.246 24.895 29.777 24.433998 29.91 23.492C 30.613 18.473 33.672 16.495998 35.492 16.07C 35.809 15.995998 36.008 15.780998 35.996 15.397999C 35.984 15.030998 35.781 14.530998 32.953 14.473zz" stroke="none" fill="#FFFFFF" fill-rule="nonzero" />
                <path d="M25.684 10.012001C 23.875 9.933998 22.105 10.308998 21.602 10.402C 19.473 10.792999 17.688 11.469002 16.16 12.477001C 12.5 14.879002 10.289 19.117 10.027 24.140999C 9.961 25.332 9.812 27.609001 12.555 27.438C 13.688 27.375 15.48 26.808998 16.746 26.433998C 18.316 25.977001 19.074 24.723 19.074 23.48C 19.074 16.402 25 11.875 27.812 11.875C 28.457 11.875 28.75 11.667999 28.75 11.25C 28.75 10.938 28.457 10.129002 25.688 10.007999zz" stroke="none" fill="#FFFFFF" fill-rule="nonzero" />
                <path d="M16.246 30.82C 15.176 31.02 14.129 31.477 13.113 31.738C 9.969 32.547 10.504 35.836 10.801 36.738C 13.66 45.469 22.746 48.387 30.082 49.168C 36.984 49.902 44.211 49.336 50.941 47.395C 51.422 47.262 52.746 46.93 52.461 46.125C 52.172 45.32 51.375 45.878998 44.035 46.047C 41.613 46.102 39.195 45.945 36.77 45.559C 32.609 44.902 28.328 43.539 24.891 40.664C 23.23 39.273003 21.773 37.5 20.797 35.402C 20.543 34.855 20.34 34.305 20.168 33.753998C 19.992 33.172 19.336 30.254 16.246 30.816zz" stroke="none" fill="#FFFFFF" fill-rule="nonzero" />
                <path d="M33.848 29.133C 34.438 31.867 36.562 35.938 44.688 35.938C 45.625 35.938 45.938 35.625 45.938 35.312C 45.938 35 45.5 34.688 45 34.688C 40.062 34.688 38.496 31.656 37.355 28.551C 36.988 27.555 36.152 27.402 35.105 27.582C 34.371 27.719002 33.574 27.808998 33.848 29.133zz" stroke="none" fill="#FFFFFF" fill-rule="nonzero" />
			</g>
		</g>
	</g>
</g>
</svg>