<svg id="svg2" 
    xmlns="http://www.w3.org/2000/svg" viewBox="0 0 32 32">
    <title>crowidn_emblem_</title>
    <path d="M25.66,13.29a18.27,18.27,0,0,0-2.17-.13c-3.61,0-5.9,1.18-6.29,3.23,0,.07,0,.34-.05.53l0,.18a.21.21,0,0,0,.16.22l.47.08a1.48,1.48,0,0,0,0,.21c0,.16,0,.32,0,.47l-.4-.06a.2.2,0,0,0-.14.06.23.23,0,0,0-.06.16c.28,3,2,3.65,3.42,3.69h.1a4.32,4.32,0,0,0,1.88-.35l.14,0a.31.31,0,0,0-.16-.59h0a1.23,1.23,0,0,1-.27,0c-1.06,0-2.21-1-2.21-3.19,0-2.6,1.83-3.87,5.58-3.87a.3.3,0,0,0,.29-.28A.32.32,0,0,0,25.66,13.29Zm-7.31,5.84.62.06a4,4,0,0,0,.63,1.55A2.21,2.21,0,0,1,18.35,19.13Zm.78-2.91-.08.31-.31,0a3.92,3.92,0,0,1-.51-.05,2.87,2.87,0,0,1,2-1.94A3.21,3.21,0,0,0,19.13,16.22Z"/>
    <path d="M27.71,11.05a20.64,20.64,0,0,0-5-.49c-3.86,0-10.47.66-11.31,5,0,.07-.05.25-.09.45a5.41,5.41,0,0,0-.13.63.2.2,0,0,0,.16.21L12,17l.34.07c0,.12,0,.23,0,.35,0,.32,0,.62,0,.91l-1-.1a.16.16,0,0,0-.13.06.17.17,0,0,0-.06.16c.44,4.79,3.62,5.5,5.48,5.5a9.86,9.86,0,0,0,1.17-.08,6.84,6.84,0,0,0,2.44-.71l.36-.17a.28.28,0,0,0,.18-.33.32.32,0,0,0-.34-.25h0a4.92,4.92,0,0,1-1,.11c-1.57,0-3.44-.83-3.44-4.77,0-5.75,8.1-6,11.15-6.1l.47,0a.3.3,0,0,0,.28-.28A.3.3,0,0,0,27.71,11.05Zm-13.3,8.49A5,5,0,0,0,16.24,23a4.13,4.13,0,0,1-3.91-3.6C13,19.44,13.7,19.5,14.41,19.54Zm.29-4c0,.18-.12.49-.19.78l-1-.1-.21,0-.79-.1a2.08,2.08,0,0,1,0-.22c.44-2.36,3-3.46,5.72-4A5.47,5.47,0,0,0,14.7,15.54Z"/>
    <path d="M28.81,8.92A32.36,32.36,0,0,0,17.35,7C12.22,7,5.81,8.08,4.4,13.21c-.06.21-.35,1.37-.4,1.6a.2.2,0,0,0,.15.23l1.4.35a4.29,4.29,0,0,0-.07.5q-.09.84-.12,1.59l-1-.24-.16,0h0a.21.21,0,0,0-.12,0,.21.21,0,0,0-.08.16c0,7.45,4.33,9,8,9a12.49,12.49,0,0,0,4.39-.77l.2-.07a.28.28,0,0,0,.2-.33.3.3,0,0,0-.31-.27c-.22,0-.44,0-.65,0l-.62,0a4.17,4.17,0,0,1-2.64-1,6.52,6.52,0,0,1-2.4-5.42,8.72,8.72,0,0,1,3.36-7C15.55,10.09,19.18,9.29,24,9.29c1.9,0,3.48.13,4.33.19l.4,0A.3.3,0,0,0,29,9.26.31.31,0,0,0,28.81,8.92ZM8.4,19.08a7.73,7.73,0,0,0,1.88,5.24,5.79,5.79,0,0,0,1.47,1.09c-4.17-.09-6.42-2.45-6.7-7C6,18.63,7.16,18.9,8.4,19.08Zm.93-5.49-.06.21c-.12.34-.28.83-.41,1.26l-.61-.13-1.44-.27c-.36-.07-.76-.15-1.5-.36,0-.23.08-.47.12-.64v-.12C6.7,9,12.64,8,17.4,8c1.37,0,2.58.05,3.68.16C14.45,8.36,10.5,10.18,9.33,13.59Z"/>
</svg>