<svg width="16" height="16" viewBox="0 0 16 16" fill="none" xmlns="http://www.w3.org/2000/svg">
    <path d="M8.73047 7.96134C8.73623 7.90786 8.76831 7.51858 8.73047 7.61702C9.01903 6.7425 10.0017 6.0303 11.4103 6.00278C11.7838 5.9955 11.7329 6.13278 11.4103 6.19226C10.2734 6.57122 9.86663 7.09618 9.86663 8.53522C9.86663 9.86838 10.8419 10.5501 10.4629 10.6119C9.57407 10.5881 8.94711 10.1712 8.75767 9.03434L9.18491 8.99434V8.48426C9.17919 8.4071 9.17919 8.18106 9.18491 8.1039L8.73047 7.96134Z"
          fill="white"/>
    <path d="M6.10511 7.70788C5.96879 7.68924 5.60204 7.55568 5.3472 7.5184C5.56392 4.33948 10.1606 4.14252 11.4104 4.48684C11.7046 4.56792 11.3154 4.64292 11.0314 4.67632C9.09859 4.90356 7.24196 5.55264 7.24196 8.27632C7.24196 10.3743 7.98432 11.1169 8.75772 11.3079C9.20628 11.5531 8.83456 11.6217 8.3788 11.6868C7.05248 11.8763 5.38883 11.4465 5.15771 8.84472L6.10511 9.0342C6.10511 8.65308 6.08431 8.08856 6.10511 7.70788Z"
          fill="white"/>
    <path d="M1.17873 5.62387C1.98057 2.88125 6.25805 2.40283 8.75768 2.40283C10.5573 2.37948 11.4499 2.49831 13.048 2.90159C13.5028 3.01637 13.5024 3.10837 13.048 3.10837C10.9746 3.02151 7.70016 3.13344 5.77641 4.51803C3.25886 6.28651 3.0092 10.6483 5.20837 12.2081C6.34369 13.0133 5.91557 13.0133 5.34717 13.0133C3.05366 13.0133 1.17873 12.3991 1.17873 8.27647C1.45584 8.34607 1.67131 8.40799 1.93663 8.46595C1.94741 7.86151 1.93663 7.35031 1.93663 6.76071C1.72366 6.73379 0.989258 6.57123 0.989258 6.57123C0.989258 6.57123 1.14973 5.72847 1.17873 5.62387Z"
          fill="white"/>
    <path d="M11.7895 6.00177C10.4811 6.00501 8.55322 6.49361 8.55322 8.23289L8.97078 8.31401C8.96518 8.38937 8.96518 8.46509 8.97078 8.54045C8.97078 8.67981 8.97078 8.81337 8.97078 8.93529L8.55322 8.90573C8.66398 10.4756 9.58406 10.9094 10.4506 10.9327C10.8651 10.9327 11.2555 10.8883 11.6378 10.712C11.6508 10.7059 11.6614 10.6953 11.6677 10.682C11.674 10.6687 11.6757 10.6535 11.6723 10.6391C11.669 10.6247 11.6609 10.612 11.6495 10.6031C11.6381 10.5941 11.624 10.5895 11.6097 10.5901C10.8107 10.7062 9.9931 10.0576 9.9931 8.68145C9.9931 6.93953 10.9401 6.38073 12.9263 6.38073C13.8181 6.38073 13.3052 6.00177 11.7895 6.00177ZM8.99626 9.24213C9.21778 9.24213 9.40402 9.24213 9.66082 9.24213C9.71518 9.70937 9.90242 10.2527 10.2367 10.5727C9.92506 10.5331 9.63582 10.385 9.41686 10.1526C9.1979 9.92037 9.02594 9.56473 8.99626 9.24213ZM9.66082 8.08597C9.5391 8.06469 8.94734 7.89649 8.94734 7.89649C8.94734 7.89649 9.3263 6.57017 10.9176 6.46757C10.6387 6.58061 10.3878 6.75661 10.1833 6.98265C9.88806 7.30913 9.70522 7.70701 9.66082 8.08597Z"
          fill="#2E3340"/>
    <path d="M14.2512 4.76238C12.4988 4.25366 5.11968 3.63692 5.11968 7.89814C5.36812 7.93454 5.54064 7.99038 5.67348 8.00858C5.6558 8.33302 5.67432 8.69762 5.67432 9.02694L4.96924 8.93538C4.96848 11.307 6.74444 12.15 8.1136 12.15C8.33964 12.1489 8.5654 12.1327 8.78952 12.1015C9.35348 12.0368 9.90052 11.8597 10.4013 11.5797C10.4122 11.5717 10.4205 11.5602 10.4248 11.547C10.4292 11.5337 10.4295 11.5194 10.4257 11.5059C10.4218 11.4925 10.4141 11.4807 10.4035 11.4722C10.3929 11.4636 10.38 11.4588 10.3666 11.4584C9.21124 11.7011 7.62832 11.3735 7.62832 8.50998C7.62832 4.7001 12.7723 4.95042 14.2685 4.88978C14.2813 4.88394 14.2919 4.87386 14.2987 4.8611C14.3054 4.84834 14.3081 4.83358 14.3061 4.81914C14.3041 4.80466 14.2977 4.79126 14.2878 4.78102C14.2778 4.77074 14.265 4.76422 14.2512 4.76238ZM8.11936 11.8285C7.45484 11.8728 6.79992 11.6446 6.2924 11.192C5.78488 10.7393 5.46436 10.0976 5.39836 9.40178C5.83744 9.46246 6.3978 9.51098 6.86576 9.53526C6.889 10.0144 7.03204 10.4787 7.28052 10.8813C7.529 11.2838 7.87412 11.6105 8.28112 11.8285H8.11936ZM7.04484 7.22386C7.01016 7.3573 6.9582 7.5939 6.91196 7.80018L6.21872 7.72738L5.51968 7.63638C5.51968 5.40854 8.99632 4.64446 10.3254 4.64446C8.523 5.08734 7.33948 5.99838 7.04484 7.20566V7.22386Z"
          fill="#2E3340"/>
    <path d="M15.1527 3.50217C13.0175 2.7453 10.6424 2.37165 8.37876 2.4017C4.77876 2.4017 0.910565 3.47282 0.799805 6.94908L1.68589 7.11316C1.57513 7.56172 1.57513 8.45884 1.57513 8.45884C1.57513 8.45884 1.06994 8.30396 0.799805 8.23456C0.799805 12.3463 3.12296 13.3912 5.35876 13.3912C6.26172 13.394 7.15764 13.2313 8.00268 12.9112C8.016 12.905 8.0268 12.8944 8.03324 12.8812C8.03968 12.868 8.04132 12.8529 8.03796 12.8385C8.03456 12.8242 8.02632 12.8115 8.01464 12.8026C8.00296 12.7937 7.98857 12.7891 7.97393 12.7897C7.27849 12.7897 6.72672 13.021 5.62316 12.2114C3.47932 10.6558 3.7437 6.60764 6.19792 4.84384C8.72688 2.98169 14.1928 3.56 15.1297 3.61783C15.1372 3.61935 15.145 3.61935 15.1526 3.61785C15.1601 3.61635 15.1673 3.61336 15.1737 3.60907C15.1801 3.60477 15.1856 3.59925 15.1899 3.59282C15.1942 3.58638 15.1972 3.57916 15.1987 3.57156C15.2002 3.56397 15.2002 3.55615 15.1987 3.54855C15.1972 3.54095 15.1942 3.53373 15.19 3.52728C15.1857 3.52084 15.1802 3.5153 15.1738 3.51099C15.1674 3.50669 15.1602 3.50369 15.1527 3.50217ZM5.38176 13.0442C2.72638 13.0442 1.36929 11.5515 1.24285 8.68312C1.96392 8.87128 2.64397 9.05916 3.3816 9.16376C3.33716 10.2879 3.7217 11.3865 4.4564 12.2345C4.83212 12.6124 5.29376 12.8923 5.80136 13.05L5.38176 13.0442ZM11.3995 3.05687C8.16345 3.05687 4.41444 3.46311 3.67958 7.11316C3.67958 7.11316 1.68589 6.77676 1.24285 6.66464C1.79665 2.06699 9.43912 2.41388 12.5404 3.05687H11.3995Z"
          fill="#2E3340"/>
</svg>
