<?xml version="1.0" encoding="UTF-8"?>
<svg xmlns="http://www.w3.org/2000/svg" xmlns:xlink="http://www.w3.org/1999/xlink" width="16px" height="16px" viewBox="0 0 16 16" version="1.1">
<g id="surface1">
<path style=" stroke:none;fill-rule:nonzero;fill:rgb(14.901961%,19.215686%,21.960784%);fill-opacity:1;" d="M 11.332031 16 L 4.667969 16 C 1.832031 16 0 14.167969 0 11.332031 L 0 4.617188 C 0 1.832031 1.832031 0 4.617188 0 L 11.332031 0 C 14.167969 0 16 1.832031 16 4.667969 L 16 11.332031 C 16 14.167969 14.167969 16 11.332031 16 Z M 11.332031 16 Z M 11.332031 16 "/>
<path style=" stroke:none;fill-rule:nonzero;fill:rgb(100%,100%,100%);fill-opacity:1;" d="M 10.277344 10.902344 C 9.980469 10.902344 9.714844 10.808594 9.492188 10.625 C 9.226562 10.410156 9.019531 10.09375 9.011719 9.71875 C 9.007812 9.527344 9.207031 9.527344 9.207031 9.527344 C 9.207031 9.527344 9.53125 9.523438 9.6875 9.523438 C 9.84375 9.527344 9.890625 9.753906 9.898438 9.808594 C 9.960938 10.320312 10.238281 10.542969 10.449219 10.644531 C 10.578125 10.703125 10.546875 10.894531 10.277344 10.902344 Z M 10.277344 10.902344 Z M 10.277344 10.902344 "/>
<path style=" stroke:none;fill-rule:nonzero;fill:rgb(100%,100%,100%);fill-opacity:1;" d="M 7.589844 8.3125 C 7.328125 8.28125 6.9375 8.253906 6.683594 8.191406 C 6.273438 8.085938 6.285156 7.703125 6.300781 7.578125 C 6.351562 7.207031 6.484375 6.859375 6.6875 6.539062 C 6.941406 6.144531 7.304688 5.800781 7.769531 5.519531 C 8.644531 4.992188 9.988281 4.667969 11.332031 4.667969 C 11.582031 4.667969 13.398438 4.667969 13.398438 5.042969 C 13.398438 5.25 12.980469 5.230469 12.796875 5.230469 C 11.425781 5.230469 10.449219 5.421875 9.722656 5.839844 C 9.007812 6.25 8.507812 6.878906 8.171875 7.804688 C 8.136719 7.886719 8.019531 8.363281 7.589844 8.316406 Z M 7.589844 8.3125 Z M 7.589844 8.3125 "/>
<path style=" stroke:none;fill-rule:nonzero;fill:rgb(100%,100%,100%);fill-opacity:1;" d="M 8.785156 12.140625 C 8.105469 12.15625 7.464844 11.835938 6.980469 11.28125 C 6.570312 10.808594 6.320312 10.335938 6.277344 9.726562 C 6.246094 9.328125 6.417969 9.191406 6.648438 9.214844 C 6.808594 9.230469 7.304688 9.257812 7.585938 9.316406 C 7.800781 9.363281 7.941406 9.484375 7.976562 9.734375 C 8.164062 11.074219 8.980469 11.601562 9.464844 11.714844 C 9.550781 11.734375 9.601562 11.792969 9.597656 11.894531 C 9.597656 11.992188 9.542969 12.125 8.789062 12.140625 Z M 8.785156 12.140625 Z M 8.785156 12.140625 "/>
<path style=" stroke:none;fill-rule:nonzero;fill:rgb(100%,100%,100%);fill-opacity:1;" d="M 6.847656 13.332031 C 6.367188 13.351562 5.894531 13.25 5.761719 13.226562 C 5.191406 13.121094 4.71875 12.941406 4.308594 12.671875 C 3.332031 12.03125 2.742188 10.902344 2.675781 9.5625 C 2.65625 9.246094 2.617188 8.636719 3.347656 8.683594 C 3.648438 8.699219 4.128906 8.851562 4.464844 8.949219 C 4.882812 9.074219 5.085938 9.40625 5.085938 9.738281 C 5.085938 11.625 6.667969 12.832031 7.417969 12.832031 C 7.589844 12.832031 7.667969 12.886719 7.667969 13 C 7.667969 13.082031 7.589844 13.300781 6.851562 13.332031 Z M 6.847656 13.332031 Z M 6.847656 13.332031 "/>
<path style=" stroke:none;fill-rule:nonzero;fill:rgb(100%,100%,100%);fill-opacity:1;" d="M 4.332031 7.78125 C 4.046875 7.726562 3.769531 7.605469 3.496094 7.535156 C 2.660156 7.320312 2.800781 6.445312 2.878906 6.203125 C 3.644531 3.875 6.066406 3.097656 8.023438 2.886719 C 9.863281 2.691406 11.789062 2.84375 13.585938 3.363281 C 13.710938 3.398438 14.066406 3.484375 13.988281 3.699219 C 13.914062 3.914062 13.699219 3.765625 11.742188 3.722656 C 11.097656 3.707031 10.453125 3.746094 9.804688 3.851562 C 8.695312 4.027344 7.554688 4.390625 6.636719 5.15625 C 6.195312 5.527344 5.804688 6 5.546875 6.558594 C 5.476562 6.707031 5.425781 6.851562 5.378906 7 C 5.332031 7.152344 5.15625 7.933594 4.332031 7.78125 Z M 4.332031 7.78125 Z M 4.332031 7.78125 "/>
<path style=" stroke:none;fill-rule:nonzero;fill:rgb(100%,100%,100%);fill-opacity:1;" d="M 9.027344 8.230469 C 9.183594 7.503906 9.75 6.417969 11.917969 6.417969 C 12.167969 6.417969 12.25 6.5 12.25 6.582031 C 12.25 6.667969 12.132812 6.75 12 6.75 C 10.683594 6.75 10.265625 7.558594 9.960938 8.386719 C 9.863281 8.652344 9.640625 8.691406 9.363281 8.644531 C 9.164062 8.609375 8.953125 8.585938 9.027344 8.230469 Z M 9.027344 8.230469 Z M 9.027344 8.230469 "/>
</g>
</svg>
