<svg width="16" height="16" viewBox="0 0 16 16" fill="none" xmlns="http://www.w3.org/2000/svg">
    <path d="M11.7895 6.00177C10.4811 6.00501 8.55322 6.49361 8.55322 8.23289L8.97078 8.31401C8.96518 8.38937 8.96518 8.46509 8.97078 8.54045C8.97078 8.67981 8.97078 8.81337 8.97078 8.93529L8.55322 8.90573C8.66398 10.4756 9.58406 10.9094 10.4506 10.9327C10.8651 10.9327 11.2555 10.8883 11.6378 10.712C11.6509 10.7059 11.6614 10.6953 11.6677 10.682C11.674 10.6687 11.6757 10.6535 11.6723 10.6391C11.669 10.6247 11.6609 10.612 11.6495 10.6031C11.6381 10.5941 11.624 10.5895 11.6097 10.5901C10.8107 10.7062 9.9931 10.0576 9.9931 8.68145C9.9931 6.93953 10.9401 6.38073 12.9263 6.38073C13.8181 6.38073 13.3052 6.00177 11.7895 6.00177ZM8.99626 9.24213C9.21778 9.24213 9.40402 9.24213 9.66082 9.24213C9.71518 9.70937 9.90242 10.2527 10.2368 10.5727C9.92506 10.5331 9.63582 10.385 9.41686 10.1526C9.1979 9.92037 9.02598 9.56473 8.99626 9.24213ZM9.66082 8.08597C9.5391 8.06469 8.94734 7.89649 8.94734 7.89649C8.94734 7.89649 9.3263 6.57017 10.9176 6.46757C10.6387 6.58061 10.3878 6.75661 10.1833 6.98265C9.88806 7.30913 9.70522 7.70701 9.66082 8.08597Z"
          fill="white"/>
    <path d="M14.2512 4.76214C12.4988 4.25342 5.11968 3.63668 5.11968 7.8979C5.36812 7.9343 5.54064 7.99014 5.67348 8.00834C5.6558 8.33278 5.67432 8.69738 5.67432 9.0267L4.96924 8.93514C4.96848 11.3067 6.74444 12.1498 8.1136 12.1498C8.33964 12.1487 8.5654 12.1325 8.78952 12.1013C9.35348 12.0366 9.90052 11.8595 10.4013 11.5795C10.4122 11.5715 10.4205 11.56 10.4248 11.5467C10.4292 11.5335 10.4295 11.5191 10.4257 11.5057C10.4218 11.4923 10.4141 11.4805 10.4035 11.4719C10.3929 11.4634 10.38 11.4586 10.3666 11.4582C9.21124 11.7009 7.62832 11.3733 7.62832 8.50974C7.62832 4.69986 12.7723 4.95018 14.2685 4.88954C14.2813 4.8837 14.2919 4.87362 14.2987 4.86086C14.3054 4.8481 14.3081 4.83338 14.3061 4.8189C14.3041 4.80442 14.2977 4.79102 14.2878 4.78078C14.2778 4.7705 14.265 4.76398 14.2512 4.76214ZM8.11936 11.8283C7.45484 11.8725 6.79992 11.6444 6.2924 11.1917C5.78488 10.7391 5.46436 10.0973 5.39836 9.40158C5.83744 9.46222 6.3978 9.51078 6.86576 9.53502C6.889 10.0142 7.03204 10.4784 7.28052 10.881C7.529 11.2836 7.87412 11.6103 8.28112 11.8283H8.11936ZM7.04484 7.22362C7.01016 7.35706 6.9582 7.59366 6.91196 7.79994L6.21872 7.72714L5.51968 7.63614C5.51968 5.4083 8.99632 4.64422 10.3254 4.64422C8.523 5.0871 7.33948 5.99814 7.04484 7.20542V7.22362Z"
          fill="white"/>
    <path d="M15.1527 3.5021C13.0175 2.74523 10.6424 2.37159 8.37876 2.40164C4.77876 2.40164 0.910565 3.47276 0.799805 6.94903L1.68589 7.11311C1.57513 7.56167 1.57513 8.45879 1.57513 8.45879C1.57513 8.45879 1.06994 8.30391 0.799805 8.23451C0.799805 12.3462 3.12296 13.3911 5.35876 13.3911C6.26172 13.3939 7.15764 13.2313 8.00268 12.9111C8.016 12.905 8.0268 12.8944 8.03324 12.8811C8.03968 12.8679 8.04132 12.8528 8.03796 12.8385C8.03456 12.8241 8.02632 12.8114 8.01464 12.8025C8.00296 12.7936 7.98857 12.7891 7.97393 12.7897C7.27849 12.7897 6.72672 13.021 5.62316 12.2113C3.47932 10.6557 3.7437 6.60759 6.19792 4.84379C8.72688 2.98163 14.1928 3.55994 15.1297 3.61777C15.1372 3.61929 15.145 3.61929 15.1526 3.61779C15.1601 3.61629 15.1673 3.6133 15.1737 3.609C15.1801 3.60471 15.1856 3.59919 15.1899 3.59275C15.1942 3.58632 15.1972 3.5791 15.1987 3.5715C15.2002 3.56391 15.2002 3.55609 15.1987 3.54849C15.1972 3.54089 15.1942 3.53367 15.19 3.52722C15.1857 3.52078 15.1802 3.51524 15.1738 3.51093C15.1674 3.50662 15.1602 3.50362 15.1527 3.5021ZM5.38176 13.0441C2.72638 13.0441 1.36929 11.5514 1.24285 8.68307C1.96392 8.87123 2.64397 9.05911 3.3816 9.16371C3.33716 10.2878 3.7217 11.3865 4.4564 12.2345C4.83212 12.6123 5.29376 12.8922 5.80136 13.0499L5.38176 13.0441ZM11.3995 3.05681C8.16345 3.05681 4.41444 3.46305 3.67958 7.11311C3.67958 7.11311 1.68589 6.77671 1.24285 6.66459C1.79665 2.06693 9.43912 2.41382 12.5404 3.05681H11.3995Z"
          fill="white"/>
</svg>
